<svg width="93" height="93" viewBox="0 0 93 93" fill="none" xmlns="http://www.w3.org/2000/svg">
<path d="M46.5 93C72.1812 93 93 72.1812 93 46.5C93 20.8188 72.1812 0 46.5 0C20.8188 0 0 20.8188 0 46.5C0 72.1812 20.8188 93 46.5 93Z" fill="black"/>
<mask id="mask0_1207_17" style="mask-type:luminance" maskUnits="userSpaceOnUse" x="0" y="0" width="93" height="93">
<path d="M46.5 93C72.1812 93 93 72.1812 93 46.5C93 20.8188 72.1812 0 46.5 0C20.8188 0 0 20.8188 0 46.5C0 72.1812 20.8188 93 46.5 93Z" fill="white"/>
</mask>
<g mask="url(#mask0_1207_17)">
<path d="M39.04 41.4L33.77 73H13.59L26.02 -1.91H45.48L40.65 27.5H41.24C43.07 23.92 45.63 21.12 48.92 19.12C52.21 17.1 55.94 16.08 60.11 16.08C64.06 16.08 67.35 16.98 69.99 18.79C72.62 20.59 74.49 23.08 75.59 26.25C76.69 29.42 76.89 33.05 76.21 37.15L70.21 73H50.02L55.29 41.4C55.73 38.62 55.38 36.44 54.23 34.85C53.11 33.27 51.27 32.47 48.71 32.47C47.05 32.47 45.54 32.84 44.17 33.57C42.83 34.28 41.71 35.3 40.8 36.64C39.92 37.96 39.34 39.54 39.04 41.39V41.4Z" fill="white"/>
</g>
</svg>
